<svg xmlns="http://www.w3.org/2000/svg" xmlns:xlink="http://www.w3.org/1999/xlink" width="1920" zoomAndPan="magnify" viewBox="0 0 1440 809.999993" height="1080" preserveAspectRatio="xMidYMid meet" version="1.0"><rect x="-144" width="1728" fill="#ffffff" y="-80.999999" height="971.999992" fill-opacity="1"/><rect x="-144" width="1728" fill="#ffffff" y="-80.999999" height="971.999992" fill-opacity="1"/><path fill="#120078" d="M 543.316406 301.003906 C 515.152344 297.355469 489.503906 279.449219 476.378906 254.269531 L 504.539062 239.601562 C 512.816406 255.476562 529.636719 267.21875 547.398438 269.519531 Z M 543.316406 301.003906 " fill-opacity="1" fill-rule="nonzero"/><path fill="#120078" d="M 677.589844 524.691406 C 674.402344 524.691406 671.210938 524.554688 668.027344 524.277344 L 670.300781 498.132812 C 688.800781 499.742188 707.660156 495.195312 723.398438 485.332031 L 737.339844 507.566406 C 719.503906 518.742188 698.597656 524.691406 677.589844 524.691406 Z M 677.589844 524.691406 " fill-opacity="1" fill-rule="nonzero"/><path fill="#120078" d="M 1210.402344 332.890625 C 1208.921875 332.890625 1207.425781 332.726562 1205.941406 332.394531 L 1211.640625 306.78125 C 1209.210938 306.242188 1207.148438 307.449219 1206.753906 308.027344 C 1206.828125 307.921875 1206.914062 307.664062 1206.921875 307.539062 C 1206.554688 305.472656 1204.453125 302.375 1202.226562 299.09375 C 1201.074219 297.398438 1199.925781 295.699219 1198.875 293.96875 C 1191.996094 282.648438 1188.699219 269.140625 1189.59375 255.925781 C 1190.671875 240.023438 1200.226562 221.816406 1218.660156 219.425781 L 1222.035156 245.449219 C 1219.503906 245.777344 1216.222656 251.199219 1215.785156 257.699219 C 1215.253906 265.5625 1217.210938 273.605469 1221.308594 280.34375 C 1222.132812 281.699219 1223.042969 283.027344 1223.945312 284.363281 C 1227.3125 289.316406 1231.496094 295.484375 1232.832031 303.457031 C 1234.238281 311.832031 1231.15625 321.03125 1224.984375 326.882812 C 1220.847656 330.804688 1215.703125 332.890625 1210.402344 332.890625 Z M 1210.402344 332.890625 " fill-opacity="1" fill-rule="nonzero"/><path fill="#120078" d="M 280.394531 734.863281 L 254.257812 732.476562 C 256.902344 703.5 242.453125 673.121094 218.300781 656.882812 L 232.953125 635.105469 C 265.320312 656.871094 283.945312 696.027344 280.394531 734.863281 Z M 280.394531 734.863281 " fill-opacity="1" fill-rule="nonzero"/><path fill="#120078" d="M 188.21875 53.886719 L 174.390625 31.582031 C 184.414062 25.371094 191.570312 14.253906 193.078125 2.5625 L 219.109375 5.90625 C 216.585938 25.53125 205.039062 43.46875 188.21875 53.886719 Z M 188.21875 53.886719 " fill-opacity="1" fill-rule="nonzero"/><path fill="#120078" d="M 925.359375 119.378906 C 925.265625 113.527344 922.257812 107.621094 917.117188 103.183594 C 911.972656 98.742188 905.703125 96.625 899.878906 97.386719 C 898.195312 97.609375 896.445312 97.972656 894.6875 98.328125 C 886.792969 99.925781 875.980469 102.117188 867.085938 94.507812 C 858.277344 86.980469 858.804688 76.296875 859.1875 68.496094 C 859.375 64.609375 859.574219 60.589844 858.601562 58.519531 L 877.730469 49.503906 C 880.960938 56.351562 880.601562 63.660156 880.316406 69.53125 C 880.175781 72.371094 879.917969 77.652344 880.832031 78.433594 C 881.878906 79.332031 887.484375 78.207031 890.492188 77.597656 C 892.742188 77.144531 894.976562 76.703125 897.136719 76.417969 C 908.914062 74.886719 921.238281 78.800781 930.941406 87.175781 C 940.640625 95.550781 946.316406 107.160156 946.511719 119.035156 Z M 925.359375 119.378906 " fill-opacity="1" fill-rule="nonzero"/><path fill="#fecd1a" d="M 539.644531 616.371094 C 510.6875 616.371094 510.640625 661.355469 539.644531 661.355469 C 568.597656 661.355469 568.644531 616.371094 539.644531 616.371094 Z M 539.644531 616.371094 " fill-opacity="1" fill-rule="nonzero"/><path fill="#fecd1a" d="M 194.96875 389.648438 C 158.777344 389.648438 158.714844 445.878906 194.96875 445.878906 C 231.164062 445.878906 231.222656 389.648438 194.96875 389.648438 Z M 194.96875 389.648438 " fill-opacity="1" fill-rule="nonzero"/><path fill="#fecd1a" d="M 803.894531 224.863281 C 777.351562 224.863281 777.308594 266.097656 803.894531 266.097656 C 830.433594 266.097656 830.480469 224.863281 803.894531 224.863281 Z M 803.894531 224.863281 " fill-opacity="1" fill-rule="nonzero"/><path fill="#fecd1a" d="M 1343.882812 492.78125 C 1322.164062 492.78125 1322.128906 526.519531 1343.882812 526.519531 C 1365.597656 526.519531 1365.632812 492.78125 1343.882812 492.78125 Z M 1343.882812 492.78125 " fill-opacity="1" fill-rule="nonzero"/><path fill="#fecd1a" d="M 979.101562 673.679688 C 957.386719 673.679688 957.347656 707.417969 979.101562 707.417969 C 1000.816406 707.417969 1000.855469 673.679688 979.101562 673.679688 Z M 979.101562 673.679688 " fill-opacity="1" fill-rule="nonzero"/><path fill="#fecd1a" d="M 448.253906 20.773438 C 447.097656 16.648438 445.007812 13.0625 441.988281 10.023438 L 439.113281 7.152344 C 436.90625 4.773438 434.292969 3.097656 431.269531 2.113281 C 428.367188 0.585938 425.234375 -0.113281 421.878906 0.015625 C 418.523438 -0.113281 415.394531 0.585938 412.488281 2.113281 C 409.46875 3.097656 406.851562 4.773438 404.644531 7.152344 C 403.375 8.796875 402.101562 10.4375 400.832031 12.082031 C 398.628906 15.882812 397.519531 19.984375 397.503906 24.382812 L 398.375 30.859375 C 399.535156 34.988281 401.625 38.570312 404.644531 41.613281 C 405.601562 42.570312 406.558594 43.527344 407.515625 44.484375 C 409.722656 46.859375 412.339844 48.539062 415.359375 49.523438 C 418.265625 51.046875 421.394531 51.746094 424.753906 51.621094 C 428.109375 51.746094 431.238281 51.046875 434.144531 49.523438 C 437.164062 48.539062 439.78125 46.859375 441.988281 44.484375 C 443.257812 42.839844 444.527344 41.195312 445.796875 39.550781 C 448.003906 35.75 449.113281 31.652344 449.125 27.253906 Z M 448.253906 20.773438 " fill-opacity="1" fill-rule="nonzero"/><path fill="#fecd1a" d="M 542.515625 46.835938 C 515.972656 46.835938 515.929688 88.070312 542.515625 88.070312 C 569.058594 88.070312 569.101562 46.835938 542.515625 46.835938 Z M 542.515625 46.835938 " fill-opacity="1" fill-rule="nonzero"/><path fill="#fd3a69" d="M 936.316406 510.578125 L 935.554688 480.597656 C 945.253906 480.351562 952.851562 465.78125 955.796875 452.347656 C 956.429688 449.464844 957.011719 446.515625 957.589844 443.550781 C 961.050781 425.90625 964.96875 405.90625 980.957031 392.074219 L 1000.585938 414.753906 C 992.417969 421.816406 989.800781 435.175781 987.03125 449.316406 C 986.40625 452.507812 985.78125 455.679688 985.101562 458.78125 C 979.699219 483.359375 964.050781 509.871094 936.316406 510.578125 Z M 936.316406 510.578125 " fill-opacity="1" fill-rule="nonzero"/><path fill="#fd3a69" d="M 1182.707031 111.554688 C 1153.433594 111.554688 1124.90625 97.136719 1107.867188 73.050781 L 1132.359375 55.734375 C 1144.996094 73.597656 1168.101562 83.824219 1189.800781 81.132812 L 1193.464844 110.902344 C 1189.882812 111.339844 1186.285156 111.554688 1182.707031 111.554688 Z M 1182.707031 111.554688 " fill-opacity="1" fill-rule="nonzero"/><path fill="#fd3a69" d="M 1179.003906 730.621094 L 1151.398438 718.882812 C 1158.238281 702.796875 1168.796875 688.191406 1181.921875 676.632812 L 1201.746094 699.140625 C 1191.964844 707.75 1184.105469 718.636719 1179.003906 730.621094 Z M 1179.003906 730.621094 " fill-opacity="1" fill-rule="nonzero"/><path fill="#fd3a69" d="M 39.332031 593.488281 C 28.140625 582.332031 15.667969 572.429688 2.265625 564.054688 L 20.148438 535.445312 C 35.703125 545.160156 50.175781 556.652344 63.164062 569.597656 Z M 39.332031 593.488281 " fill-opacity="1" fill-rule="nonzero"/><path fill="#fd3a69" d="M 358.308594 497.292969 L 331.433594 476.886719 C 344.433594 459.773438 345.257812 433.378906 333.351562 415.488281 L 361.449219 396.800781 C 381.257812 426.5625 379.9375 468.824219 358.308594 497.292969 Z M 358.308594 497.292969 " fill-opacity="1" fill-rule="nonzero"/><path fill="#9d0191" d="M 1101.222656 553.933594 C 1094.777344 567.363281 1089.894531 581.539062 1086.703125 596.089844 C 1104.613281 594.664062 1122.351562 591.097656 1139.417969 585.492188 C 1126.1875 576.652344 1112.964844 567.800781 1099.753906 558.933594 " fill-opacity="1" fill-rule="nonzero"/><path fill="#9d0191" d="M 425.398438 623.433594 C 410.847656 634.125 396.300781 644.8125 381.753906 655.5 C 400.007812 661.746094 417.277344 670.847656 432.742188 682.378906 C 430.390625 660.445312 427.066406 638.617188 422.792969 616.976562 " fill-opacity="1" fill-rule="nonzero"/><path fill="#9d0191" d="M 1052.183594 186.777344 L 1011.335938 213.574219 L 1062.398438 232.4375 Z M 1052.183594 186.777344 " fill-opacity="1" fill-rule="nonzero"/><path fill="#9d0191" d="M 267.695312 96.550781 L 258.160156 162.527344 L 304.117188 151.042969 Z M 267.695312 96.550781 " fill-opacity="1" fill-rule="nonzero"/><path fill="#9d0191" d="M 1397.496094 305.585938 L 1437.710938 343.109375 L 1397.496094 362.25 Z M 1397.496094 305.585938 " fill-opacity="1" fill-rule="nonzero"/><path fill="#9d0191" d="M 791.84375 690.550781 L 730.367188 716.390625 L 783.96875 747.019531 Z M 791.84375 690.550781 " fill-opacity="1" fill-rule="nonzero"/></svg>