<svg xmlns="http://www.w3.org/2000/svg" xmlns:xlink="http://www.w3.org/1999/xlink" width="500" zoomAndPan="magnify" viewBox="0 0 375 374.999991" height="500" preserveAspectRatio="xMidYMid meet" version="1.0"><defs><clipPath id="c45f99b98d"><path d="M 0 6.476562 L 314 6.476562 L 314 368.625 L 0 368.625 Z M 0 6.476562 " clip-rule="nonzero"/></clipPath><clipPath id="629590148e"><path d="M 20 6.476562 L 375 6.476562 L 375 368.625 L 20 368.625 Z M 20 6.476562 " clip-rule="nonzero"/></clipPath></defs><g clip-path="url(#c45f99b98d)"><path fill="#5e17eb" d="M 5.175781 6.5625 L 45.523438 52.085938 L 45.523438 322.914062 L 132.824219 322.914062 C 169.875 322.914062 203.699219 307.914062 228.601562 283.011719 C 252.976562 258.636719 268.5 224.8125 268.5 187.761719 C 268.5 150.1875 252.976562 116.4375 228.601562 91.988281 C 204.601562 68.0625 172.273438 53.0625 136.574219 52.085938 L 96.226562 6.5625 L 132.824219 6.5625 C 182.550781 6.5625 227.625 27.1875 260.476562 60.039062 C 293.324219 92.4375 313.5 137.960938 313.5 187.6875 C 313.5 237.414062 293.324219 282.5625 260.476562 315.414062 C 227.625 348.261719 182.550781 368.4375 132.824219 368.4375 L 0 368.4375 L 0 6.5625 Z M 5.175781 6.5625 " fill-opacity="1" fill-rule="nonzero"/></g><g clip-path="url(#629590148e)"><path fill="#5e17eb" d="M 375 29.585938 L 375 368.4375 L 342.601562 368.4375 L 285.375 304.164062 C 295.199219 291.488281 303.226562 277.914062 309.300781 263.363281 L 329.476562 286.386719 L 329.476562 29.585938 Z M 238.875 252.039062 L 54 44.585938 L 20.175781 6.5625 L 80.699219 6.5625 L 95.699219 23.4375 L 255.75 203.210938 C 253.875 220.613281 247.800781 237.039062 238.875 252.039062 Z M 54 44.585938 L 87.75 14.511719 L 95.699219 23.4375 Z M 54 44.585938 " fill-opacity="1" fill-rule="nonzero"/></g></svg>