<svg xmlns="http://www.w3.org/2000/svg" xmlns:xlink="http://www.w3.org/1999/xlink" width="500" zoomAndPan="magnify" viewBox="0 0 375 374.999991" height="500" preserveAspectRatio="xMidYMid meet" version="1.0"><defs><clipPath id="b9d43f9bf1"><path d="M 24.152344 55 L 307 55 L 307 375 L 24.152344 375 Z M 24.152344 55 " clip-rule="nonzero"/></clipPath><clipPath id="9f5b9016db"><path d="M 68 0 L 351.152344 0 L 351.152344 324 L 68 324 Z M 68 0 " clip-rule="nonzero"/></clipPath></defs><g clip-path="url(#b9d43f9bf1)"><path fill="#ff1616" d="M 260.183594 325.082031 C 260.183594 280.488281 260.183594 236.578125 260.183594 192.65625 C 259.617188 192.441406 259.050781 192.226562 258.484375 192 C 235.113281 221.320312 211.730469 250.632812 187.507812 281.015625 C 178.886719 270.285156 170.625 260.015625 161.636719 248.828125 C 117.546875 304.179688 73.804688 359.074219 29.707031 414.4375 C 27.695312 412.828125 26.085938 411.542969 24.171875 410.011719 C 118.042969 292.105469 211.5625 174.628906 306.273438 55.660156 C 306.273438 146.597656 306.273438 235.621094 306.273438 325.082031 C 291.140625 325.082031 276.398438 325.082031 260.183594 325.082031 Z M 260.183594 325.082031 " fill-opacity="1" fill-rule="nonzero"/></g><g clip-path="url(#9f5b9016db)"><path fill="#ff1616" d="M 68.757812 56.890625 C 103.019531 99.894531 136.203125 141.5625 170.128906 184.160156 C 172.707031 181.066406 174.972656 178.433594 177.128906 175.722656 C 231.539062 107.347656 285.929688 38.933594 340.425781 -29.382812 C 342.828125 -32.386719 345.101562 -39.332031 351.105469 -31.421875 C 282.714844 54.480469 214.277344 140.453125 145.046875 227.417969 C 135.402344 215.480469 126.214844 204.097656 115.953125 191.40625 C 115.5625 194.742188 115.144531 196.652344 115.144531 198.574219 C 115.105469 218.394531 115.347656 238.226562 114.9375 258.035156 C 114.851562 262.113281 113.316406 266.851562 110.847656 270.0625 C 97.460938 287.53125 83.570312 304.621094 68.75 323.21875 C 68.757812 233.960938 68.757812 146.390625 68.757812 56.890625 Z M 68.757812 56.890625 " fill-opacity="1" fill-rule="nonzero"/></g></svg>