<svg xmlns="http://www.w3.org/2000/svg" xmlns:xlink="http://www.w3.org/1999/xlink" width="500" zoomAndPan="magnify" viewBox="0 0 375 374.999991" height="500" preserveAspectRatio="xMidYMid meet" version="1.0"><defs><clipPath id="e68e1d6350"><path d="M 37.5 37.5 L 289 37.5 L 289 326.917969 L 37.5 326.917969 Z M 37.5 37.5 " clip-rule="nonzero"/></clipPath><clipPath id="1aeed3a0fb"><path d="M 53 37.5 L 337.5 37.5 L 337.5 326.917969 L 53 326.917969 Z M 53 37.5 " clip-rule="nonzero"/></clipPath></defs><g clip-path="url(#e68e1d6350)"><path fill="#5e17eb" d="M 41.640625 37.566406 L 73.921875 73.949219 L 73.921875 290.386719 L 143.761719 290.386719 C 173.398438 290.386719 200.460938 278.402344 220.378906 258.5 C 239.878906 239.019531 252.300781 211.988281 252.300781 182.378906 C 252.300781 152.347656 239.878906 125.375 220.378906 105.835938 C 201.179688 86.714844 175.320312 74.726562 146.761719 73.949219 L 114.480469 37.566406 L 143.761719 37.566406 C 183.539062 37.566406 219.601562 54.046875 245.878906 80.300781 C 272.160156 106.195312 288.300781 142.578125 288.300781 182.316406 C 288.300781 222.058594 272.160156 258.140625 245.878906 284.394531 C 219.601562 310.648438 183.539062 326.773438 143.761719 326.773438 L 37.5 326.773438 L 37.5 37.566406 Z M 41.640625 37.566406 " fill-opacity="1" fill-rule="nonzero"/></g><g clip-path="url(#1aeed3a0fb)"><path fill="#5e17eb" d="M 337.5 55.964844 L 337.5 326.773438 L 311.578125 326.773438 L 265.800781 275.402344 C 273.660156 265.273438 280.078125 254.425781 284.941406 242.796875 L 301.078125 261.199219 L 301.078125 55.964844 Z M 228.601562 233.746094 L 80.699219 67.953125 L 53.640625 37.566406 L 102.058594 37.566406 L 114.058594 51.050781 L 242.101562 194.726562 C 240.601562 208.632812 235.738281 221.757812 228.601562 233.746094 Z M 80.699219 67.953125 L 107.699219 43.917969 L 114.058594 51.050781 Z M 80.699219 67.953125 " fill-opacity="1" fill-rule="nonzero"/></g></svg>