<svg xmlns="http://www.w3.org/2000/svg" xmlns:xlink="http://www.w3.org/1999/xlink" width="500" zoomAndPan="magnify" viewBox="0 0 375 374.999991" height="500" preserveAspectRatio="xMidYMid meet" version="1.0"><defs><clipPath id="1392cf4142"><path d="M 19.976562 31.246094 L 355.09375 31.246094 L 355.09375 343.996094 L 19.976562 343.996094 Z M 19.976562 31.246094 " clip-rule="nonzero"/></clipPath></defs><g clip-path="url(#1392cf4142)"><path fill="#fac51c" d="M 52.027344 238.582031 L 97.742188 195.90625 C 140.3125 156.117188 205.667969 155.445312 249.109375 194.296875 L 297.441406 237.574219 L 268.144531 211.339844 C 270.761719 202.28125 272.234375 192.753906 272.234375 182.890625 C 272.234375 154.976562 260.972656 129.746094 242.671875 111.429688 C 224.4375 93.179688 199.167969 81.839844 171.347656 81.839844 C 143.460938 81.839844 118.257812 93.109375 99.957031 111.429688 C 84.605469 126.792969 74.214844 147.058594 71.265625 169.671875 L 23.132812 214.492188 C 20.988281 204.292969 19.847656 193.691406 19.847656 182.890625 C 19.847656 141.019531 36.808594 103.109375 64.226562 75.664062 C 91.644531 48.222656 129.519531 31.246094 171.347656 31.246094 C 213.175781 31.246094 251.050781 48.222656 278.46875 75.664062 C 305.886719 103.109375 322.847656 141.019531 322.847656 182.890625 C 322.847656 205.972656 317.683594 227.847656 308.5 247.371094 L 355.089844 289.039062 L 279.476562 289.039062 L 255.476562 267.570312 L 203.792969 221.335938 C 186.566406 205.972656 160.6875 206.242188 143.796875 222.007812 L 104.582031 258.644531 C 122.34375 274.347656 145.742188 283.941406 171.347656 283.941406 C 198.699219 283.941406 223.566406 273.003906 241.734375 255.355469 L 241.734375 317.222656 C 220.683594 328.292969 196.753906 334.535156 171.347656 334.535156 C 129.519531 334.535156 91.644531 317.558594 64.226562 290.113281 C 53.300781 279.175781 44.046875 266.5625 36.875 252.738281 Z M 340.945312 343.996094 Z M 340.945312 343.996094 " fill-opacity="1" fill-rule="nonzero"/></g></svg>