<svg xmlns="http://www.w3.org/2000/svg" xmlns:xlink="http://www.w3.org/1999/xlink" width="1920" zoomAndPan="magnify" viewBox="0 0 1440 809.999993" height="1080" preserveAspectRatio="xMidYMid meet" version="1.0"><defs><g/></defs><g fill="#fac51c" fill-opacity="1"><g transform="translate(148.578501, 372.359255)"><g><path d="M 105.8125 -76.375 L 110.484375 -117.0625 L 25.109375 -108.0625 L 23.375 -124.171875 L 118.96875 -134.375 L 127.796875 -125.375 L 122.09375 -74.46875 Z M 93.6875 -6.40625 L 126.421875 -9.53125 L 131.09375 -54.71875 L 39.828125 -48.3125 L 31.34375 -58.359375 L 41.90625 -100.78125 L 57.671875 -96.796875 L 49.703125 -65.28125 L 139.75 -71.6875 L 148.40625 -62.515625 L 141.65625 -1.03125 L 134.375 6.234375 L 95.25 9.703125 Z M 10.734375 -19.921875 L 104.078125 -39.3125 L 107.359375 -23.375 L 14.03125 -4.15625 Z M 10.734375 -19.921875 "/></g></g></g><g fill="#fac51c" fill-opacity="1"><g transform="translate(342.515748, 372.359255)"><g><path d="M 78.453125 -25.109375 L 69.78125 -130.21875 L 86.0625 -131.609375 L 95.078125 -20.78125 L 90.390625 -12.8125 L 46.75 7.09375 L 39.828125 -7.625 Z M 37.921875 -96.28125 L 52.8125 -89.53125 L 23.203125 -24.078125 L 8.484375 -30.65625 Z M 118.625 -89.359375 L 150.65625 -44.15625 L 137.5 -34.640625 L 105.28125 -79.828125 Z M 118.625 -89.359375 "/></g></g></g><g fill="#fac51c" fill-opacity="1"><g transform="translate(536.452996, 372.359255)"><g><path d="M 91.4375 -134.375 L 106.671875 -129.015625 L 100.953125 -111.875 L 110.828125 -112.90625 L 110.828125 -131.78125 L 127.28125 -131.609375 L 127.109375 -114.8125 L 143.046875 -116.546875 L 145.125 -100.265625 L 127.109375 -98.1875 L 127.109375 -81.21875 L 152.046875 -80.359375 L 151.53125 -64.078125 L 84.15625 -66.5 L 84.6875 -82.78125 L 110.828125 -81.734375 L 110.828125 -96.453125 L 89.875 -94.203125 L 81.21875 -104.9375 Z M 73.25 -133.515625 L 74.984375 -117.40625 L 65.28125 -116.203125 L 63.546875 -94.203125 L 71.515625 -94.203125 L 79.65625 -86.40625 L 85.03125 -6.234375 L 77.921875 2.078125 L 16.96875 9.875 L 7.625 1.90625 L 7.625 -85.890625 L 15.578125 -94.203125 L 27.53125 -94.203125 L 28.75 -112.21875 L 8.65625 -109.96875 L 6.921875 -126.25 Z M 47.28125 -94.203125 L 48.828125 -114.46875 L 45.375 -114.125 L 43.984375 -94.203125 Z M 56.453125 -34.640625 L 58.53125 -18.703125 L 24.078125 -14.203125 L 24.078125 -7.453125 L 68.234375 -12.984375 L 66.5 -38.4375 L 50.90625 -40.703125 L 43.984375 -49.53125 L 46.0625 -77.75 L 42.953125 -77.75 L 40.515625 -40.875 L 24.078125 -42.078125 L 26.5 -77.75 L 23.890625 -77.75 L 23.890625 -30.484375 Z M 60.78125 -55.9375 L 65.28125 -55.234375 L 63.90625 -77.75 L 62.34375 -77.75 Z M 88.484375 -2.421875 L 87.28125 -49.359375 L 95.421875 -57.84375 L 144.421875 -57.84375 L 152.390625 -48.65625 L 147.203125 -0.859375 L 139.0625 6.40625 L 96.625 5.375 Z M 135.25 -41.390625 L 103.90625 -41.390625 L 104.765625 -10.5625 L 131.78125 -10.21875 Z M 135.25 -41.390625 "/></g></g></g><g fill="#fac51c" fill-opacity="1"><g transform="translate(730.390236, 372.359255)"><g><path d="M 46.929688 -24.242188 C 39.480469 -24.242188 29.4375 -33.769531 29.4375 -55.414062 C 29.4375 -78.445312 49.527344 -106.671875 82.425781 -110.828125 C 80.523438 -95.070312 77.234375 -78.792969 72.902344 -64.589844 C 64.070312 -35.671875 54.546875 -24.242188 46.929688 -24.242188 Z M 92.125 4.503906 C 132.992188 -0.867188 156.714844 -24.9375 156.714844 -60.953125 C 156.714844 -95.589844 131.085938 -123.988281 90.914062 -123.988281 C 49.007812 -123.988281 15.757812 -91.433594 15.757812 -54.203125 C 15.757812 -25.976562 31.171875 -8.3125 46.410156 -8.3125 C 62.339844 -8.3125 76.019531 -26.496094 86.582031 -61.648438 C 91.257812 -77.753906 94.550781 -95.070312 96.800781 -111 C 125.894531 -108.574219 142.34375 -87.277344 142.34375 -61.300781 C 142.34375 -31.691406 120.871094 -15.410156 98.878906 -10.5625 C 94.722656 -9.699219 89.527344 -8.832031 84.160156 -8.484375 Z M 92.125 4.503906 "/></g></g></g><g fill="#fac51c" fill-opacity="1"><g transform="translate(938.179961, 372.359255)"><g><path d="M 109.4375 -7.625 L 125.71875 -10.046875 L 134.734375 -116.546875 L 24.421875 -114.8125 L 30.484375 3.984375 L 14.03125 4.84375 L 7.453125 -122.4375 L 15.40625 -131.09375 L 143.5625 -133 L 151.875 -124.171875 L 141.484375 -2.25 L 134.546875 4.84375 L 111.875 8.3125 Z M 118.28125 -29.09375 L 107.015625 -17.140625 L 90.5625 -32.390625 L 73.25 3.8125 L 58.53125 -3.109375 L 78.09375 -43.984375 L 67.359375 -54.03125 L 52.296875 -16.796875 L 37.40625 -22.859375 L 54.546875 -65.8125 L 27.875 -90.734375 L 38.796875 -102.6875 L 61.125 -81.90625 L 71.515625 -108.0625 L 86.765625 -102 L 73.765625 -70.140625 L 85.375 -59.390625 L 110.484375 -112.046875 L 125.203125 -104.765625 L 98.015625 -47.796875 Z M 118.28125 -29.09375 "/></g></g></g><g fill="#fac51c" fill-opacity="1"><g transform="translate(1132.117209, 372.359255)"><g><path d="M 124.515625 -54.546875 L 119.828125 -47.453125 L 98.1875 -37.234375 L 91.265625 -51.953125 L 108.578125 -60.09375 L 109.09375 -70.65625 L 71.515625 -67.890625 L 87.453125 -52.296875 L 76.015625 -40.703125 L 58.703125 -57.84375 L 68.40625 -67.703125 L 47.28125 -66.15625 L 48.140625 -56.109375 L 45.890625 -49.703125 L 31.171875 -33.9375 L 19.046875 -45.03125 L 31.515625 -58.1875 L 31 -64.9375 L 7.796875 -63.203125 L 6.75 -79.484375 L 29.609375 -81.21875 L 27.1875 -113.78125 L 35.328125 -122.4375 L 49.875 -122.609375 L 66.15625 -141.140625 L 78.453125 -130.21875 L 71.859375 -122.78125 L 119.3125 -123.296875 L 127.625 -114.640625 L 126.25 -88.3125 L 151.171875 -90.21875 L 152.390625 -73.9375 L 125.375 -71.859375 Z M 109.796875 -87.109375 L 110.828125 -106.84375 L 68.0625 -106.5 L 84.6875 -91.953125 L 78.09375 -84.6875 Z M 68.75 -83.984375 L 55.9375 -95.59375 L 65.625 -106.5 L 44.15625 -106.328125 L 46.0625 -82.4375 Z M 137.671875 -4.15625 L 138.359375 12.125 L 7.625 16.625 L 6.921875 0.515625 L 22.859375 0 L 19.046875 -20.78125 L 26.671875 -30.484375 L 126.421875 -35.671875 L 134.90625 -26.15625 L 130.921875 -3.8125 Z M 100.78125 -2.765625 L 114.46875 -3.296875 L 117.234375 -18.875 L 101.65625 -18.015625 Z M 84.328125 -2.25 L 85.203125 -17.140625 L 63.375 -16.109375 L 65.984375 -1.5625 Z M 49.359375 -1.03125 L 47.109375 -15.234375 L 36.890625 -14.71875 L 39.65625 -0.6875 Z M 49.359375 -1.03125 "/></g></g></g><g fill="#fac51c" fill-opacity="1"><g transform="translate(241.206673, 526.029426)"><g><path d="M 7.3125 1.25 C 5.257812 1.25 3.398438 0.59375 1.734375 -0.71875 C 0.0664062 -2.03125 -0.765625 -3.78125 -0.765625 -5.96875 C -0.765625 -10.519531 2.019531 -15.710938 7.59375 -21.546875 C 13.300781 -27.453125 18.398438 -30.40625 22.890625 -30.40625 C 24.429688 -30.40625 25.648438 -30.003906 26.546875 -29.203125 C 27.453125 -28.398438 27.90625 -27.421875 27.90625 -26.265625 C 27.90625 -24.660156 27.519531 -23.1875 26.75 -21.84375 C 25.84375 -20.175781 24.554688 -19.34375 22.890625 -19.34375 C 21.222656 -19.34375 20.390625 -19.851562 20.390625 -20.875 C 20.390625 -21.582031 20.804688 -22.640625 21.640625 -24.046875 C 22.546875 -25.523438 23 -26.296875 23 -26.359375 C 23 -26.484375 22.898438 -26.546875 22.703125 -26.546875 C 20.910156 -26.359375 18.410156 -25.046875 15.203125 -22.609375 C 13.785156 -21.515625 12.546875 -20.488281 11.484375 -19.53125 C 10.429688 -18.570312 9.585938 -17.640625 8.953125 -16.734375 L 5.1875 -11.25 C 4.8125 -10.675781 4.410156 -9.679688 3.984375 -8.265625 C 3.566406 -6.859375 3.359375 -5.800781 3.359375 -5.09375 C 3.359375 -3.8125 3.789062 -2.753906 4.65625 -1.921875 C 5.53125 -1.085938 6.640625 -0.671875 7.984375 -0.671875 C 11.191406 -0.671875 15.425781 -2.753906 20.6875 -6.921875 C 24.914062 -10.253906 28.3125 -13.625 30.875 -17.03125 C 31.195312 -17.414062 31.582031 -17.609375 32.03125 -17.609375 C 32.476562 -17.609375 32.703125 -17.476562 32.703125 -17.21875 C 32.703125 -17.03125 32.546875 -16.710938 32.234375 -16.265625 C 28.703125 -11.578125 24.5625 -7.535156 19.8125 -4.140625 C 14.75 -0.546875 10.582031 1.25 7.3125 1.25 Z M 7.3125 1.25 "/></g></g></g><g fill="#fac51c" fill-opacity="1"><g transform="translate(287.671844, 526.029426)"><g><path d="M 7.3125 0.1875 C 5.445312 0.1875 3.710938 -0.273438 2.109375 -1.203125 C 0.515625 -2.128906 -0.28125 -3.6875 -0.28125 -5.875 C -0.28125 -8.882812 0.789062 -12.472656 2.9375 -16.640625 C 5.082031 -20.804688 7.535156 -25.132812 10.296875 -29.625 C 17.796875 -41.8125 23.117188 -47.90625 26.265625 -47.90625 C 26.898438 -47.90625 27.554688 -47.664062 28.234375 -47.1875 C 28.910156 -46.707031 29.28125 -46.175781 29.34375 -45.59375 L 22.609375 -36.5625 C 19.972656 -33.03125 17.597656 -29.769531 15.484375 -26.78125 C 13.367188 -23.800781 11.539062 -21.128906 10 -18.765625 C 9.226562 -17.546875 8.363281 -16.164062 7.40625 -14.625 C 6.445312 -13.082031 5.597656 -11.492188 4.859375 -9.859375 C 4.117188 -8.222656 3.75 -6.570312 3.75 -4.90625 C 3.75 -4.132812 3.972656 -3.441406 4.421875 -2.828125 C 4.867188 -2.222656 5.671875 -1.921875 6.828125 -1.921875 C 8.878906 -1.921875 11.570312 -3.023438 14.90625 -5.234375 C 18.238281 -7.453125 21.546875 -10.519531 24.828125 -14.4375 C 25.140625 -14.8125 25.488281 -15.160156 25.875 -15.484375 C 26.257812 -15.804688 26.582031 -15.96875 26.84375 -15.96875 C 27.164062 -15.96875 27.328125 -15.773438 27.328125 -15.390625 C 27.328125 -15.203125 27.117188 -14.832031 26.703125 -14.28125 C 26.285156 -13.738281 25.945312 -13.304688 25.6875 -12.984375 L 23.375 -10.390625 C 22.09375 -8.984375 20.566406 -7.441406 18.796875 -5.765625 C 17.035156 -4.097656 15.175781 -2.6875 13.21875 -1.53125 C 11.269531 -0.382812 9.300781 0.1875 7.3125 0.1875 Z M 7.3125 0.1875 "/></g></g></g><g fill="#fac51c" fill-opacity="1"><g transform="translate(330.289053, 526.029426)"><g><path d="M 4.140625 0.1875 C 2.535156 0.1875 1.28125 -0.5625 0.375 -2.0625 C -0.519531 -3.570312 -0.96875 -5.035156 -0.96875 -6.453125 C -0.96875 -10.296875 1.820312 -15.679688 7.40625 -22.609375 C 13.050781 -29.597656 17.601562 -33.09375 21.0625 -33.09375 C 24.332031 -33.09375 25.96875 -31.363281 25.96875 -27.90625 C 25.96875 -27.382812 25.921875 -26.832031 25.828125 -26.25 C 25.734375 -25.675781 25.625 -25.070312 25.5 -24.4375 C 25.625 -24.238281 25.941406 -24.140625 26.453125 -24.140625 C 28.179688 -24.140625 30.234375 -24.75 32.609375 -25.96875 C 32.546875 -24.882812 30.015625 -23.316406 25.015625 -21.265625 C 25.722656 -19.148438 23.601562 -15.109375 18.65625 -9.140625 C 13.59375 -2.921875 9.265625 0.1875 5.671875 0.1875 Z M 5.875 -2.6875 C 8.625 -2.6875 12.148438 -5.222656 16.453125 -10.296875 C 20.617188 -15.234375 22.703125 -18.789062 22.703125 -20.96875 C 21.679688 -21.550781 20.398438 -23.023438 18.859375 -25.390625 C 16.671875 -25.390625 13.523438 -22.765625 9.421875 -17.515625 C 5.378906 -12.378906 3.425781 -8.429688 3.5625 -5.671875 C 3.625 -3.679688 4.394531 -2.6875 5.875 -2.6875 Z M 5.875 -2.6875 "/></g></g></g><g fill="#fac51c" fill-opacity="1"><g transform="translate(376.561822, 526.029426)"><g><path d="M 4.515625 1.0625 C 1.628906 1.0625 0.1875 -0.765625 0.1875 -4.421875 C 0.1875 -5.835938 0.617188 -7.519531 1.484375 -9.46875 C 2.359375 -11.425781 3.59375 -13.5 5.1875 -15.6875 C 5.1875 -15.6875 4.609375 -15.140625 3.453125 -14.046875 C 2.304688 -12.953125 0.992188 -11.570312 -0.484375 -9.90625 C -0.734375 -9.65625 -1.050781 -9.53125 -1.4375 -9.53125 C -1.695312 -9.53125 -1.828125 -9.6875 -1.828125 -10 C -1.828125 -10.320312 -1.539062 -10.867188 -0.96875 -11.640625 L 12.3125 -27.21875 C 13.976562 -29.144531 15.804688 -30.109375 17.796875 -30.109375 C 19.273438 -30.109375 20.015625 -29.53125 20.015625 -28.375 C 20.015625 -27.925781 19.820312 -27.507812 19.4375 -27.125 C 18.21875 -25.96875 16.722656 -24.332031 14.953125 -22.21875 C 13.191406 -20.101562 11.476562 -17.828125 9.8125 -15.390625 C 8.144531 -12.953125 6.75 -10.625 5.625 -8.40625 C 4.5 -6.195312 3.9375 -4.421875 3.9375 -3.078125 C 3.9375 -1.921875 4.320312 -1.34375 5.09375 -1.34375 C 5.539062 -1.34375 6.242188 -1.519531 7.203125 -1.875 C 8.171875 -2.226562 9.457031 -2.960938 11.0625 -4.078125 C 12.664062 -5.203125 14.585938 -6.953125 16.828125 -9.328125 C 17.210938 -9.710938 18.238281 -10.867188 19.90625 -12.796875 C 21.582031 -14.722656 23.828125 -17.476562 26.640625 -21.0625 C 31.648438 -27.289062 34.925781 -30.40625 36.46875 -30.40625 C 38.582031 -30.40625 39.734375 -29.535156 39.921875 -27.796875 C 40.046875 -27.222656 38.703125 -25.332031 35.890625 -22.125 C 32.234375 -17.695312 29.726562 -14.523438 28.375 -12.609375 C 25.875 -8.953125 24.625 -6.097656 24.625 -4.046875 C 24.625 -2.628906 25.109375 -1.921875 26.078125 -1.921875 C 27.035156 -1.921875 28.265625 -2.382812 29.765625 -3.3125 C 31.273438 -4.25 32.863281 -5.4375 34.53125 -6.875 C 36.195312 -8.320312 37.816406 -9.828125 39.390625 -11.390625 C 40.960938 -12.960938 42.328125 -14.425781 43.484375 -15.78125 C 43.867188 -16.226562 44.253906 -16.453125 44.640625 -16.453125 C 45.023438 -16.453125 45.21875 -16.257812 45.21875 -15.875 C 45.21875 -15.75 45.179688 -15.554688 45.109375 -15.296875 C 45.046875 -15.035156 44.859375 -14.75 44.546875 -14.4375 C 43.515625 -13.28125 42.195312 -11.847656 40.59375 -10.140625 C 38.988281 -8.441406 37.253906 -6.757812 35.390625 -5.09375 C 33.535156 -3.425781 31.742188 -2.046875 30.015625 -0.953125 C 28.285156 0.128906 26.8125 0.671875 25.59375 0.671875 C 24.113281 0.671875 22.828125 0.269531 21.734375 -0.53125 C 20.648438 -1.332031 20.109375 -2.4375 20.109375 -3.84375 C 20.109375 -5.257812 20.332031 -6.6875 20.78125 -8.125 C 21.226562 -9.570312 21.582031 -10.804688 21.84375 -11.828125 C 18.820312 -8.304688 16.171875 -5.613281 13.890625 -3.75 C 11.617188 -1.894531 9.710938 -0.628906 8.171875 0.046875 C 6.640625 0.722656 5.421875 1.0625 4.515625 1.0625 Z M 4.515625 1.0625 "/></g></g></g><g fill="#fac51c" fill-opacity="1"><g transform="translate(436.687292, 526.029426)"><g><path d="M 6.453125 0.484375 C 4.523438 0.484375 2.882812 -0.0390625 1.53125 -1.09375 C 0.1875 -2.15625 -0.578125 -3.457031 -0.765625 -5 C -1.023438 -7.050781 -0.722656 -9.117188 0.140625 -11.203125 C 1.003906 -13.285156 2.191406 -15.289062 3.703125 -17.21875 C 5.210938 -19.144531 6.832031 -20.941406 8.5625 -22.609375 C 15.363281 -29.410156 21.488281 -32.8125 26.9375 -32.8125 C 28.800781 -32.8125 30.050781 -32.328125 30.6875 -31.359375 C 30.945312 -31.035156 31.234375 -30.300781 31.546875 -29.15625 C 38.734375 -40.820312 43.738281 -46.65625 46.5625 -46.65625 C 47.207031 -46.65625 47.878906 -46.492188 48.578125 -46.171875 C 49.285156 -45.859375 49.640625 -45.441406 49.640625 -44.921875 C 49.640625 -44.609375 49.476562 -44.191406 49.15625 -43.671875 C 47.238281 -41.296875 45.316406 -38.9375 43.390625 -36.59375 C 41.460938 -34.257812 39.570312 -31.90625 37.71875 -29.53125 C 34.570312 -25.550781 32.035156 -22.085938 30.109375 -19.140625 C 28.179688 -16.191406 26.800781 -13.691406 25.96875 -11.640625 C 25.71875 -10.992188 25.476562 -10.207031 25.25 -9.28125 C 25.03125 -8.351562 24.921875 -7.410156 24.921875 -6.453125 C 24.921875 -5.234375 25.175781 -4.171875 25.6875 -3.265625 C 26.195312 -2.367188 27.125 -1.921875 28.46875 -1.921875 C 30.59375 -1.921875 33.191406 -2.945312 36.265625 -5 C 39.347656 -7.050781 42.941406 -10.421875 47.046875 -15.109375 C 47.296875 -15.359375 47.53125 -15.578125 47.75 -15.765625 C 47.976562 -15.960938 48.222656 -16.09375 48.484375 -16.15625 C 49.066406 -16.289062 49.359375 -16.164062 49.359375 -15.78125 C 49.359375 -15.582031 49.164062 -15.226562 48.78125 -14.71875 C 46.789062 -12.34375 44.578125 -10 42.140625 -7.6875 C 39.703125 -5.382812 37.210938 -3.476562 34.671875 -1.96875 C 32.140625 -0.46875 29.785156 0.28125 27.609375 0.28125 C 25.429688 0.28125 23.890625 -0.453125 22.984375 -1.921875 C 22.085938 -3.398438 21.640625 -5.066406 21.640625 -6.921875 C 21.640625 -8.847656 21.992188 -10.613281 22.703125 -12.21875 L 14.90625 -4.421875 C 13.175781 -2.691406 11.585938 -1.441406 10.140625 -0.671875 C 8.703125 0.0976562 7.472656 0.484375 6.453125 0.484375 Z M 5.578125 -1.640625 C 8.335938 -1.640625 12.925781 -5.421875 19.34375 -12.984375 C 19.65625 -13.367188 20.773438 -14.796875 22.703125 -17.265625 C 24.628906 -19.734375 27.351562 -23.34375 30.875 -28.09375 C 30.425781 -28.863281 29.660156 -29.25 28.578125 -29.25 C 24.597656 -29.25 19.273438 -26.101562 12.609375 -19.8125 C 6.316406 -13.976562 3.171875 -9.070312 3.171875 -5.09375 C 3.171875 -2.789062 3.972656 -1.640625 5.578125 -1.640625 Z M 5.578125 -1.640625 "/></g></g></g><g fill="#fac51c" fill-opacity="1"><g transform="translate(500.853121, 526.029426)"><g><path d="M 12.5 0.09375 C 11.414062 0.09375 10.472656 -0.238281 9.671875 -0.90625 C 8.867188 -1.582031 8.46875 -2.367188 8.46875 -3.265625 C 8.46875 -5.128906 9.6875 -6.0625 12.125 -6.0625 C 13.019531 -6.0625 13.914062 -5.753906 14.8125 -5.140625 C 15.707031 -4.535156 16.15625 -3.753906 16.15625 -2.796875 C 16.15625 -2.023438 15.738281 -1.347656 14.90625 -0.765625 C 14.070312 -0.191406 13.269531 0.09375 12.5 0.09375 Z M 12.5 0.09375 "/></g></g></g><g fill="#fac51c" fill-opacity="1"><g transform="translate(541.834938, 526.029426)"><g><path d="M 22.703125 0.1875 C 21.160156 0.1875 20.390625 -0.675781 20.390625 -2.40625 C 21.097656 -6 22.539062 -10.039062 24.71875 -14.53125 C 25.75 -16.707031 26.789062 -18.851562 27.84375 -20.96875 C 28.90625 -23.082031 29.953125 -25.234375 30.984375 -27.421875 C 28.609375 -25.816406 26.234375 -24.035156 23.859375 -22.078125 C 21.484375 -20.117188 19.175781 -17.921875 16.9375 -15.484375 C 14.300781 -12.660156 11.253906 -9.039062 7.796875 -4.625 C 5.296875 -1.476562 3.851562 0.09375 3.46875 0.09375 C 2.5625 0.09375 1.820312 -0.320312 1.25 -1.15625 C 0.675781 -1.988281 0.390625 -2.691406 0.390625 -3.265625 C 0.390625 -4.097656 1.125 -6.25 2.59375 -9.71875 C 3.039062 -10.8125 3.503906 -11.882812 3.984375 -12.9375 C 4.472656 -14 4.941406 -15.039062 5.390625 -16.0625 L -0.390625 -10 C -0.515625 -9.875 -0.894531 -9.488281 -1.53125 -8.84375 C -2.175781 -8.207031 -2.691406 -7.890625 -3.078125 -7.890625 C -3.398438 -7.890625 -3.5625 -8.113281 -3.5625 -8.5625 C -3.5625 -8.6875 -3.507812 -8.859375 -3.40625 -9.078125 C -3.3125 -9.304688 -3.109375 -9.582031 -2.796875 -9.90625 C -1.828125 -10.875 -0.832031 -11.898438 0.1875 -12.984375 C 1.21875 -14.078125 2.273438 -15.328125 3.359375 -16.734375 C 4.203125 -17.828125 5.40625 -19.445312 6.96875 -21.59375 C 8.539062 -23.75 10.484375 -26.460938 12.796875 -29.734375 C 13.503906 -30.691406 14.5 -31.171875 15.78125 -31.171875 C 17.0625 -31.171875 17.703125 -30.5625 17.703125 -29.34375 C 17.703125 -28.894531 16.066406 -25.910156 12.796875 -20.390625 C 11.128906 -17.441406 9.796875 -15.035156 8.796875 -13.171875 C 7.804688 -11.316406 7.179688 -9.941406 6.921875 -9.046875 C 8.335938 -10.585938 10.019531 -12.316406 11.96875 -14.234375 C 13.925781 -16.160156 16.191406 -18.3125 18.765625 -20.6875 C 26.648438 -28 31.84375 -31.65625 34.34375 -31.65625 C 35.050781 -31.65625 35.738281 -31.425781 36.40625 -30.96875 C 37.082031 -30.519531 37.421875 -29.945312 37.421875 -29.25 C 37.421875 -28.925781 36.171875 -26.582031 33.671875 -22.21875 C 31.234375 -17.789062 29.882812 -15.160156 29.625 -14.328125 C 36.75 -20.296875 40.3125 -23.3125 40.3125 -23.375 C 46.34375 -28.0625 50.671875 -30.40625 53.296875 -30.40625 C 54.066406 -30.40625 54.785156 -30.160156 55.453125 -29.671875 C 56.128906 -29.191406 56.46875 -28.632812 56.46875 -28 C 56.46875 -27.863281 54.414062 -25.164062 50.3125 -19.90625 C 46.082031 -14.582031 43.707031 -10.222656 43.1875 -6.828125 C 42.9375 -4.515625 44.125 -3.359375 46.75 -3.359375 C 48.351562 -3.359375 50.597656 -4.382812 53.484375 -6.4375 C 56.367188 -8.5 59.382812 -11.320312 62.53125 -14.90625 C 62.914062 -15.351562 63.332031 -15.785156 63.78125 -16.203125 C 64.226562 -16.617188 64.613281 -16.828125 64.9375 -16.828125 C 65.320312 -16.828125 65.515625 -16.671875 65.515625 -16.359375 C 65.515625 -15.910156 65.226562 -15.394531 64.65625 -14.8125 C 62.976562 -12.820312 61 -10.769531 58.71875 -8.65625 C 56.445312 -6.539062 54.1875 -4.757812 51.9375 -3.3125 C 49.695312 -1.875 47.710938 -1.15625 45.984375 -1.15625 C 41.617188 -1.15625 39.4375 -3.175781 39.4375 -7.21875 C 39.4375 -8.625 39.820312 -10.269531 40.59375 -12.15625 C 41.363281 -14.050781 42.132812 -15.769531 42.90625 -17.3125 C 44.769531 -20.90625 46.789062 -24.082031 48.96875 -26.84375 C 46.914062 -25.8125 44.78125 -24.460938 42.5625 -22.796875 C 40.351562 -21.128906 38.0625 -19.175781 35.6875 -16.9375 C 30.175781 -11.539062 26.394531 -6.085938 24.34375 -0.578125 C 24.019531 -0.0664062 23.472656 0.1875 22.703125 0.1875 Z M 22.703125 0.1875 "/></g></g></g><g fill="#fac51c" fill-opacity="1"><g transform="translate(621.777454, 526.029426)"><g><path d="M 6.453125 0.484375 C 4.910156 0.484375 3.367188 -0.0625 1.828125 -1.15625 C 0.285156 -2.25 -0.578125 -3.53125 -0.765625 -5 C -1.410156 -9.9375 1.695312 -15.804688 8.5625 -22.609375 C 15.363281 -29.410156 21.488281 -32.8125 26.9375 -32.8125 C 28.414062 -32.8125 29.570312 -32.457031 30.40625 -31.75 C 30.851562 -31.300781 31.1875 -30.691406 31.40625 -29.921875 C 31.632812 -29.148438 31.8125 -28.765625 31.9375 -28.765625 C 32.195312 -28.765625 32.421875 -28.8125 32.609375 -28.90625 C 32.804688 -29 33.03125 -29.046875 33.28125 -29.046875 C 34.050781 -29.046875 34.722656 -28.757812 35.296875 -28.1875 C 35.878906 -27.613281 36.203125 -27.097656 36.265625 -26.640625 C 36.328125 -26.515625 34.273438 -23.34375 30.109375 -17.125 C 25.941406 -11.03125 24.050781 -6.894531 24.4375 -4.71875 C 24.757812 -3.238281 25.460938 -2.5 26.546875 -2.5 C 29.878906 -2.5 35.972656 -8.015625 44.828125 -19.046875 C 45.023438 -19.304688 45.21875 -19.4375 45.40625 -19.4375 C 45.726562 -19.4375 45.890625 -19.210938 45.890625 -18.765625 C 45.890625 -18.242188 45.597656 -17.597656 45.015625 -16.828125 C 36.878906 -5.867188 30.628906 -0.390625 26.265625 -0.390625 C 25.679688 -0.390625 25.132812 -0.484375 24.625 -0.671875 C 21.800781 -1.765625 20.390625 -3.878906 20.390625 -7.015625 C 20.390625 -8.109375 20.519531 -9.203125 20.78125 -10.296875 L 14.8125 -4.515625 C 13.019531 -2.722656 11.398438 -1.441406 9.953125 -0.671875 C 8.515625 0.0976562 7.347656 0.484375 6.453125 0.484375 Z M 5.578125 -1.640625 C 9.296875 -1.640625 14.363281 -5.710938 20.78125 -13.859375 L 30.984375 -27.90625 C 30.460938 -28.800781 29.625 -29.25 28.46875 -29.25 C 24.5625 -29.25 19.273438 -26.101562 12.609375 -19.8125 C 5.679688 -13.40625 2.566406 -8.113281 3.265625 -3.9375 C 3.585938 -2.40625 4.359375 -1.640625 5.578125 -1.640625 Z M 5.578125 -1.640625 "/></g></g></g><g fill="#fac51c" fill-opacity="1"><g transform="translate(680.652314, 526.029426)"><g><path d="M -1.734375 9.8125 C -2.503906 9.8125 -2.890625 9.457031 -2.890625 8.75 C -2.890625 8.5625 -2.820312 8.40625 -2.6875 8.28125 C 3.269531 -1.15625 9.710938 -9.429688 16.640625 -16.546875 C 16.703125 -18.085938 16.765625 -20.09375 16.828125 -22.5625 C 16.898438 -25.03125 17 -27.960938 17.125 -31.359375 C 16.414062 -31.234375 15.226562 -30.160156 13.5625 -28.140625 C 11.894531 -26.117188 9.941406 -23.472656 7.703125 -20.203125 C 5.515625 -16.992188 3.472656 -14.332031 1.578125 -12.21875 C -0.304688 -10.101562 -1.378906 -8.945312 -1.640625 -8.75 C -2.085938 -8.363281 -2.503906 -8.171875 -2.890625 -8.171875 C -3.203125 -8.171875 -3.359375 -8.332031 -3.359375 -8.65625 C -3.359375 -8.914062 -3.242188 -9.1875 -3.015625 -9.46875 C -2.796875 -9.757812 -2.269531 -10.351562 -1.4375 -11.25 C -0.289062 -12.539062 0.695312 -13.679688 1.53125 -14.671875 C 2.375 -15.660156 3.191406 -16.734375 3.984375 -17.890625 C 4.785156 -19.046875 5.734375 -20.457031 6.828125 -22.125 C 7.535156 -23.15625 8.414062 -24.453125 9.46875 -26.015625 C 10.53125 -27.585938 11.625 -29.113281 12.75 -30.59375 C 13.875 -32.070312 14.851562 -33.160156 15.6875 -33.859375 C 16.320312 -34.441406 17.007812 -34.859375 17.75 -35.109375 C 18.488281 -35.367188 19.175781 -35.5 19.8125 -35.5 C 20.582031 -35.5 21.304688 -35.335938 21.984375 -35.015625 C 22.660156 -34.691406 22.898438 -33.988281 22.703125 -32.90625 C 22.703125 -32.84375 22.554688 -31.832031 22.265625 -29.875 C 21.984375 -27.914062 21.710938 -25.046875 21.453125 -21.265625 C 22.671875 -22.421875 25.09375 -24.582031 28.71875 -27.75 C 32.34375 -30.925781 37.007812 -34.953125 42.71875 -39.828125 C 42.84375 -39.953125 43 -40.015625 43.1875 -40.015625 C 43.644531 -40.015625 44.128906 -39.742188 44.640625 -39.203125 C 45.148438 -38.660156 45.40625 -38.097656 45.40625 -37.515625 C 45.40625 -37.003906 45.148438 -36.492188 44.640625 -35.984375 C 42.648438 -34.378906 38.800781 -31.492188 33.09375 -27.328125 C 30.53125 -25.523438 28.238281 -23.789062 26.21875 -22.125 C 24.195312 -20.457031 22.546875 -19.015625 21.265625 -17.796875 C 21.203125 -17.148438 21.171875 -16.503906 21.171875 -15.859375 C 21.171875 -15.222656 21.171875 -14.617188 21.171875 -14.046875 C 21.171875 -10.066406 21.566406 -7.097656 22.359375 -5.140625 C 23.160156 -3.191406 24.460938 -2.21875 26.265625 -2.21875 C 28.253906 -2.21875 30.769531 -3.484375 33.8125 -6.015625 C 36.863281 -8.546875 39.988281 -11.671875 43.1875 -15.390625 C 43.832031 -16.035156 44.316406 -16.359375 44.640625 -16.359375 C 44.960938 -16.359375 45.125 -16.164062 45.125 -15.78125 C 45.125 -15.644531 45.070312 -15.445312 44.96875 -15.1875 C 44.875 -14.9375 44.664062 -14.617188 44.34375 -14.234375 C 42.289062 -11.859375 40.0625 -9.453125 37.65625 -7.015625 C 35.257812 -4.578125 32.84375 -2.539062 30.40625 -0.90625 C 27.96875 0.726562 25.625 1.546875 23.375 1.546875 C 21.445312 1.546875 20.003906 0.820312 19.046875 -0.625 C 18.085938 -2.070312 17.460938 -3.914062 17.171875 -6.15625 C 16.878906 -8.40625 16.703125 -10.75 16.640625 -13.1875 C 8.816406 -4.84375 2.945312 2.691406 -0.96875 9.421875 C -1.15625 9.679688 -1.410156 9.8125 -1.734375 9.8125 Z M -1.734375 9.8125 "/></g></g></g><g fill="#fac51c" fill-opacity="1"><g transform="translate(740.970182, 526.029426)"><g><path d="M 21.265625 -33.09375 C 20.171875 -33.09375 19.222656 -33.441406 18.421875 -34.140625 C 17.617188 -34.847656 17.21875 -35.65625 17.21875 -36.5625 C 17.21875 -38.351562 18.4375 -39.25 20.875 -39.25 C 21.769531 -39.25 22.664062 -38.941406 23.5625 -38.328125 C 24.46875 -37.722656 24.921875 -36.972656 24.921875 -36.078125 C 24.921875 -35.304688 24.503906 -34.613281 23.671875 -34 C 22.835938 -33.394531 22.035156 -33.09375 21.265625 -33.09375 Z M 3.46875 1.0625 C 2.050781 1.0625 0.878906 0.597656 -0.046875 -0.328125 C -0.972656 -1.265625 -1.4375 -2.921875 -1.4375 -5.296875 C -1.4375 -6.640625 -1.128906 -8.191406 -0.515625 -9.953125 C 0.0859375 -11.722656 0.851562 -13.503906 1.78125 -15.296875 C 2.707031 -17.085938 3.617188 -18.691406 4.515625 -20.109375 C 8.109375 -25.941406 11.0625 -28.890625 13.375 -28.953125 C 13.945312 -28.953125 14.648438 -28.710938 15.484375 -28.234375 C 16.316406 -27.753906 16.734375 -27.222656 16.734375 -26.640625 C 16.734375 -26.640625 14.296875 -23.5 9.421875 -17.21875 C 4.617188 -11 2.21875 -6.570312 2.21875 -3.9375 C 2.21875 -1.882812 3.019531 -0.859375 4.625 -0.859375 C 5.644531 -0.859375 6.972656 -1.289062 8.609375 -2.15625 C 10.242188 -3.03125 11.957031 -4.140625 13.75 -5.484375 C 15.550781 -6.828125 17.269531 -8.269531 18.90625 -9.8125 C 20.539062 -11.351562 21.867188 -12.765625 22.890625 -14.046875 C 23.535156 -14.878906 24.097656 -15.457031 24.578125 -15.78125 C 25.054688 -16.101562 25.363281 -16.265625 25.5 -16.265625 C 25.75 -16.265625 25.875 -16.070312 25.875 -15.6875 C 25.875 -15.363281 25.503906 -14.71875 24.765625 -13.75 C 24.035156 -12.789062 23.023438 -11.671875 21.734375 -10.390625 C 20.203125 -8.847656 18.503906 -7.175781 16.640625 -5.375 C 14.785156 -3.582031 12.765625 -2.0625 10.578125 -0.8125 C 8.398438 0.4375 6.03125 1.0625 3.46875 1.0625 Z M 3.46875 1.0625 "/></g></g></g><g fill="#fac51c" fill-opacity="1"><g transform="translate(781.952022, 526.029426)"><g><path d="M 6.453125 0.484375 C 4.910156 0.484375 3.367188 -0.0625 1.828125 -1.15625 C 0.285156 -2.25 -0.578125 -3.53125 -0.765625 -5 C -1.410156 -9.9375 1.695312 -15.804688 8.5625 -22.609375 C 15.363281 -29.410156 21.488281 -32.8125 26.9375 -32.8125 C 28.414062 -32.8125 29.570312 -32.457031 30.40625 -31.75 C 30.851562 -31.300781 31.1875 -30.691406 31.40625 -29.921875 C 31.632812 -29.148438 31.8125 -28.765625 31.9375 -28.765625 C 32.195312 -28.765625 32.421875 -28.8125 32.609375 -28.90625 C 32.804688 -29 33.03125 -29.046875 33.28125 -29.046875 C 34.050781 -29.046875 34.722656 -28.757812 35.296875 -28.1875 C 35.878906 -27.613281 36.203125 -27.097656 36.265625 -26.640625 C 36.328125 -26.515625 34.273438 -23.34375 30.109375 -17.125 C 25.941406 -11.03125 24.050781 -6.894531 24.4375 -4.71875 C 24.757812 -3.238281 25.460938 -2.5 26.546875 -2.5 C 29.878906 -2.5 35.972656 -8.015625 44.828125 -19.046875 C 45.023438 -19.304688 45.21875 -19.4375 45.40625 -19.4375 C 45.726562 -19.4375 45.890625 -19.210938 45.890625 -18.765625 C 45.890625 -18.242188 45.597656 -17.597656 45.015625 -16.828125 C 36.878906 -5.867188 30.628906 -0.390625 26.265625 -0.390625 C 25.679688 -0.390625 25.132812 -0.484375 24.625 -0.671875 C 21.800781 -1.765625 20.390625 -3.878906 20.390625 -7.015625 C 20.390625 -8.109375 20.519531 -9.203125 20.78125 -10.296875 L 14.8125 -4.515625 C 13.019531 -2.722656 11.398438 -1.441406 9.953125 -0.671875 C 8.515625 0.0976562 7.347656 0.484375 6.453125 0.484375 Z M 5.578125 -1.640625 C 9.296875 -1.640625 14.363281 -5.710938 20.78125 -13.859375 L 30.984375 -27.90625 C 30.460938 -28.800781 29.625 -29.25 28.46875 -29.25 C 24.5625 -29.25 19.273438 -26.101562 12.609375 -19.8125 C 5.679688 -13.40625 2.566406 -8.113281 3.265625 -3.9375 C 3.585938 -2.40625 4.359375 -1.640625 5.578125 -1.640625 Z M 5.578125 -1.640625 "/></g></g></g><g fill="#fac51c" fill-opacity="1"><g transform="translate(840.826882, 526.029426)"><g><path d="M 4.140625 0.1875 C 2.535156 0.1875 1.28125 -0.5625 0.375 -2.0625 C -0.519531 -3.570312 -0.96875 -5.035156 -0.96875 -6.453125 C -0.96875 -10.296875 1.820312 -15.679688 7.40625 -22.609375 C 13.050781 -29.597656 17.601562 -33.09375 21.0625 -33.09375 C 24.332031 -33.09375 25.96875 -31.363281 25.96875 -27.90625 C 25.96875 -27.382812 25.921875 -26.832031 25.828125 -26.25 C 25.734375 -25.675781 25.625 -25.070312 25.5 -24.4375 C 25.625 -24.238281 25.941406 -24.140625 26.453125 -24.140625 C 28.179688 -24.140625 30.234375 -24.75 32.609375 -25.96875 C 32.546875 -24.882812 30.015625 -23.316406 25.015625 -21.265625 C 25.722656 -19.148438 23.601562 -15.109375 18.65625 -9.140625 C 13.59375 -2.921875 9.265625 0.1875 5.671875 0.1875 Z M 5.875 -2.6875 C 8.625 -2.6875 12.148438 -5.222656 16.453125 -10.296875 C 20.617188 -15.234375 22.703125 -18.789062 22.703125 -20.96875 C 21.679688 -21.550781 20.398438 -23.023438 18.859375 -25.390625 C 16.671875 -25.390625 13.523438 -22.765625 9.421875 -17.515625 C 5.378906 -12.378906 3.425781 -8.429688 3.5625 -5.671875 C 3.625 -3.679688 4.394531 -2.6875 5.875 -2.6875 Z M 5.875 -2.6875 "/></g></g></g><g fill="#fac51c" fill-opacity="1"><g transform="translate(887.099645, 526.029426)"><g><path d="M 19.71875 1.15625 C 17.601562 1.15625 15.726562 0.546875 14.09375 -0.671875 C 12.457031 -1.890625 11.046875 -3.425781 9.859375 -5.28125 C 8.671875 -7.144531 7.660156 -9.007812 6.828125 -10.875 C 6.378906 -10.289062 5.914062 -9.550781 5.4375 -8.65625 C 4.957031 -7.757812 4.394531 -6.703125 3.75 -5.484375 L 0.765625 0.484375 C -1.535156 -0.410156 -2.6875 -1.628906 -2.6875 -3.171875 C -2.6875 -5.929688 1.507812 -13.597656 9.90625 -26.171875 C 18.050781 -38.359375 23.664062 -45.539062 26.75 -47.71875 C 27.0625 -47.90625 27.570312 -48 28.28125 -48 C 30.269531 -48 31.265625 -47.488281 31.265625 -46.46875 C 31.265625 -46.269531 30.816406 -45.578125 29.921875 -44.390625 C 29.023438 -43.210938 27.898438 -41.785156 26.546875 -40.109375 C 25.203125 -38.441406 23.835938 -36.757812 22.453125 -35.0625 C 21.078125 -33.363281 19.875 -31.890625 18.84375 -30.640625 C 17.820312 -29.390625 17.25 -28.601562 17.125 -28.28125 C 22.957031 -31.300781 27.609375 -32.8125 31.078125 -32.8125 C 32.421875 -32.8125 33.65625 -32.425781 34.78125 -31.65625 C 35.90625 -30.882812 36.785156 -29.953125 37.421875 -28.859375 C 38.066406 -27.765625 38.320312 -26.707031 38.1875 -25.6875 C 37.675781 -22.03125 35.113281 -19.015625 30.5 -16.640625 C 26.78125 -14.648438 23.378906 -13.65625 20.296875 -13.65625 C 16.960938 -13.65625 14.65625 -14.070312 13.375 -14.90625 C 12.988281 -14.96875 12.679688 -14.882812 12.453125 -14.65625 C 12.234375 -14.4375 12.1875 -14.101562 12.3125 -13.65625 C 14.101562 -5.707031 17.085938 -1.734375 21.265625 -1.734375 C 23.316406 -1.734375 26.054688 -2.914062 29.484375 -5.28125 C 32.921875 -7.65625 36.5625 -11.125 40.40625 -15.6875 C 40.851562 -16.132812 41.269531 -16.359375 41.65625 -16.359375 C 41.976562 -16.359375 42.140625 -16.164062 42.140625 -15.78125 C 42.140625 -15.457031 41.914062 -14.972656 41.46875 -14.328125 C 39.601562 -12.085938 37.4375 -9.765625 34.96875 -7.359375 C 32.5 -4.953125 29.945312 -2.929688 27.3125 -1.296875 C 24.6875 0.335938 22.15625 1.15625 19.71875 1.15625 Z M 14.140625 -16.15625 C 17.023438 -16.15625 20.8125 -17.34375 25.5 -19.71875 C 30.882812 -22.414062 33.578125 -25.269531 33.578125 -28.28125 C 33.578125 -28.789062 33.285156 -29.300781 32.703125 -29.8125 C 32.128906 -30.332031 31.519531 -30.59375 30.875 -30.59375 C 27.414062 -30.59375 23.378906 -29.242188 18.765625 -26.546875 C 13.691406 -23.472656 10.613281 -20.109375 9.53125 -16.453125 C 10.226562 -16.453125 11.140625 -16.398438 12.265625 -16.296875 C 13.390625 -16.203125 14.015625 -16.15625 14.140625 -16.15625 Z M 14.140625 -16.15625 "/></g></g></g><g fill="#fac51c" fill-opacity="1"><g transform="translate(944.242922, 526.029426)"><g><path d="M 4.515625 1.0625 C 1.628906 1.0625 0.1875 -0.765625 0.1875 -4.421875 C 0.1875 -5.835938 0.617188 -7.519531 1.484375 -9.46875 C 2.359375 -11.425781 3.59375 -13.5 5.1875 -15.6875 C 5.1875 -15.6875 4.609375 -15.140625 3.453125 -14.046875 C 2.304688 -12.953125 0.992188 -11.570312 -0.484375 -9.90625 C -0.734375 -9.65625 -1.050781 -9.53125 -1.4375 -9.53125 C -1.695312 -9.53125 -1.828125 -9.6875 -1.828125 -10 C -1.828125 -10.320312 -1.539062 -10.867188 -0.96875 -11.640625 L 12.3125 -27.21875 C 13.976562 -29.144531 15.804688 -30.109375 17.796875 -30.109375 C 19.273438 -30.109375 20.015625 -29.53125 20.015625 -28.375 C 20.015625 -27.925781 19.820312 -27.507812 19.4375 -27.125 C 18.21875 -25.96875 16.722656 -24.332031 14.953125 -22.21875 C 13.191406 -20.101562 11.476562 -17.828125 9.8125 -15.390625 C 8.144531 -12.953125 6.75 -10.625 5.625 -8.40625 C 4.5 -6.195312 3.9375 -4.421875 3.9375 -3.078125 C 3.9375 -1.921875 4.320312 -1.34375 5.09375 -1.34375 C 5.539062 -1.34375 6.242188 -1.519531 7.203125 -1.875 C 8.171875 -2.226562 9.457031 -2.960938 11.0625 -4.078125 C 12.664062 -5.203125 14.585938 -6.953125 16.828125 -9.328125 C 17.210938 -9.710938 18.238281 -10.867188 19.90625 -12.796875 C 21.582031 -14.722656 23.828125 -17.476562 26.640625 -21.0625 C 31.648438 -27.289062 34.925781 -30.40625 36.46875 -30.40625 C 38.582031 -30.40625 39.734375 -29.535156 39.921875 -27.796875 C 40.046875 -27.222656 38.703125 -25.332031 35.890625 -22.125 C 32.234375 -17.695312 29.726562 -14.523438 28.375 -12.609375 C 25.875 -8.953125 24.625 -6.097656 24.625 -4.046875 C 24.625 -2.628906 25.109375 -1.921875 26.078125 -1.921875 C 27.035156 -1.921875 28.265625 -2.382812 29.765625 -3.3125 C 31.273438 -4.25 32.863281 -5.4375 34.53125 -6.875 C 36.195312 -8.320312 37.816406 -9.828125 39.390625 -11.390625 C 40.960938 -12.960938 42.328125 -14.425781 43.484375 -15.78125 C 43.867188 -16.226562 44.253906 -16.453125 44.640625 -16.453125 C 45.023438 -16.453125 45.21875 -16.257812 45.21875 -15.875 C 45.21875 -15.75 45.179688 -15.554688 45.109375 -15.296875 C 45.046875 -15.035156 44.859375 -14.75 44.546875 -14.4375 C 43.515625 -13.28125 42.195312 -11.847656 40.59375 -10.140625 C 38.988281 -8.441406 37.253906 -6.757812 35.390625 -5.09375 C 33.535156 -3.425781 31.742188 -2.046875 30.015625 -0.953125 C 28.285156 0.128906 26.8125 0.671875 25.59375 0.671875 C 24.113281 0.671875 22.828125 0.269531 21.734375 -0.53125 C 20.648438 -1.332031 20.109375 -2.4375 20.109375 -3.84375 C 20.109375 -5.257812 20.332031 -6.6875 20.78125 -8.125 C 21.226562 -9.570312 21.582031 -10.804688 21.84375 -11.828125 C 18.820312 -8.304688 16.171875 -5.613281 13.890625 -3.75 C 11.617188 -1.894531 9.710938 -0.628906 8.171875 0.046875 C 6.640625 0.722656 5.421875 1.0625 4.515625 1.0625 Z M 4.515625 1.0625 "/></g></g></g><g fill="#fac51c" fill-opacity="1"><g transform="translate(1004.368392, 526.029426)"><g><path d="M 12.5 0.09375 C 11.414062 0.09375 10.472656 -0.238281 9.671875 -0.90625 C 8.867188 -1.582031 8.46875 -2.367188 8.46875 -3.265625 C 8.46875 -5.128906 9.6875 -6.0625 12.125 -6.0625 C 13.019531 -6.0625 13.914062 -5.753906 14.8125 -5.140625 C 15.707031 -4.535156 16.15625 -3.753906 16.15625 -2.796875 C 16.15625 -2.023438 15.738281 -1.347656 14.90625 -0.765625 C 14.070312 -0.191406 13.269531 0.09375 12.5 0.09375 Z M 12.5 0.09375 "/></g></g></g><g fill="#fac51c" fill-opacity="1"><g transform="translate(1045.350186, 526.029426)"><g><path d="M 7.3125 1.25 C 5.257812 1.25 3.398438 0.59375 1.734375 -0.71875 C 0.0664062 -2.03125 -0.765625 -3.78125 -0.765625 -5.96875 C -0.765625 -10.519531 2.019531 -15.710938 7.59375 -21.546875 C 13.300781 -27.453125 18.398438 -30.40625 22.890625 -30.40625 C 24.429688 -30.40625 25.648438 -30.003906 26.546875 -29.203125 C 27.453125 -28.398438 27.90625 -27.421875 27.90625 -26.265625 C 27.90625 -24.660156 27.519531 -23.1875 26.75 -21.84375 C 25.84375 -20.175781 24.554688 -19.34375 22.890625 -19.34375 C 21.222656 -19.34375 20.390625 -19.851562 20.390625 -20.875 C 20.390625 -21.582031 20.804688 -22.640625 21.640625 -24.046875 C 22.546875 -25.523438 23 -26.296875 23 -26.359375 C 23 -26.484375 22.898438 -26.546875 22.703125 -26.546875 C 20.910156 -26.359375 18.410156 -25.046875 15.203125 -22.609375 C 13.785156 -21.515625 12.546875 -20.488281 11.484375 -19.53125 C 10.429688 -18.570312 9.585938 -17.640625 8.953125 -16.734375 L 5.1875 -11.25 C 4.8125 -10.675781 4.410156 -9.679688 3.984375 -8.265625 C 3.566406 -6.859375 3.359375 -5.800781 3.359375 -5.09375 C 3.359375 -3.8125 3.789062 -2.753906 4.65625 -1.921875 C 5.53125 -1.085938 6.640625 -0.671875 7.984375 -0.671875 C 11.191406 -0.671875 15.425781 -2.753906 20.6875 -6.921875 C 24.914062 -10.253906 28.3125 -13.625 30.875 -17.03125 C 31.195312 -17.414062 31.582031 -17.609375 32.03125 -17.609375 C 32.476562 -17.609375 32.703125 -17.476562 32.703125 -17.21875 C 32.703125 -17.03125 32.546875 -16.710938 32.234375 -16.265625 C 28.703125 -11.578125 24.5625 -7.535156 19.8125 -4.140625 C 14.75 -0.546875 10.582031 1.25 7.3125 1.25 Z M 7.3125 1.25 "/></g></g></g><g fill="#fac51c" fill-opacity="1"><g transform="translate(1091.815394, 526.029426)"><g><path d="M 4.140625 0.1875 C 2.535156 0.1875 1.28125 -0.5625 0.375 -2.0625 C -0.519531 -3.570312 -0.96875 -5.035156 -0.96875 -6.453125 C -0.96875 -10.296875 1.820312 -15.679688 7.40625 -22.609375 C 13.050781 -29.597656 17.601562 -33.09375 21.0625 -33.09375 C 24.332031 -33.09375 25.96875 -31.363281 25.96875 -27.90625 C 25.96875 -27.382812 25.921875 -26.832031 25.828125 -26.25 C 25.734375 -25.675781 25.625 -25.070312 25.5 -24.4375 C 25.625 -24.238281 25.941406 -24.140625 26.453125 -24.140625 C 28.179688 -24.140625 30.234375 -24.75 32.609375 -25.96875 C 32.546875 -24.882812 30.015625 -23.316406 25.015625 -21.265625 C 25.722656 -19.148438 23.601562 -15.109375 18.65625 -9.140625 C 13.59375 -2.921875 9.265625 0.1875 5.671875 0.1875 Z M 5.875 -2.6875 C 8.625 -2.6875 12.148438 -5.222656 16.453125 -10.296875 C 20.617188 -15.234375 22.703125 -18.789062 22.703125 -20.96875 C 21.679688 -21.550781 20.398438 -23.023438 18.859375 -25.390625 C 16.671875 -25.390625 13.523438 -22.765625 9.421875 -17.515625 C 5.378906 -12.378906 3.425781 -8.429688 3.5625 -5.671875 C 3.625 -3.679688 4.394531 -2.6875 5.875 -2.6875 Z M 5.875 -2.6875 "/></g></g></g><g fill="#fac51c" fill-opacity="1"><g transform="translate(1138.088157, 526.029426)"><g><path d="M 22.703125 0.1875 C 21.160156 0.1875 20.390625 -0.675781 20.390625 -2.40625 C 21.097656 -6 22.539062 -10.039062 24.71875 -14.53125 C 25.75 -16.707031 26.789062 -18.851562 27.84375 -20.96875 C 28.90625 -23.082031 29.953125 -25.234375 30.984375 -27.421875 C 28.609375 -25.816406 26.234375 -24.035156 23.859375 -22.078125 C 21.484375 -20.117188 19.175781 -17.921875 16.9375 -15.484375 C 14.300781 -12.660156 11.253906 -9.039062 7.796875 -4.625 C 5.296875 -1.476562 3.851562 0.09375 3.46875 0.09375 C 2.5625 0.09375 1.820312 -0.320312 1.25 -1.15625 C 0.675781 -1.988281 0.390625 -2.691406 0.390625 -3.265625 C 0.390625 -4.097656 1.125 -6.25 2.59375 -9.71875 C 3.039062 -10.8125 3.503906 -11.882812 3.984375 -12.9375 C 4.472656 -14 4.941406 -15.039062 5.390625 -16.0625 L -0.390625 -10 C -0.515625 -9.875 -0.894531 -9.488281 -1.53125 -8.84375 C -2.175781 -8.207031 -2.691406 -7.890625 -3.078125 -7.890625 C -3.398438 -7.890625 -3.5625 -8.113281 -3.5625 -8.5625 C -3.5625 -8.6875 -3.507812 -8.859375 -3.40625 -9.078125 C -3.3125 -9.304688 -3.109375 -9.582031 -2.796875 -9.90625 C -1.828125 -10.875 -0.832031 -11.898438 0.1875 -12.984375 C 1.21875 -14.078125 2.273438 -15.328125 3.359375 -16.734375 C 4.203125 -17.828125 5.40625 -19.445312 6.96875 -21.59375 C 8.539062 -23.75 10.484375 -26.460938 12.796875 -29.734375 C 13.503906 -30.691406 14.5 -31.171875 15.78125 -31.171875 C 17.0625 -31.171875 17.703125 -30.5625 17.703125 -29.34375 C 17.703125 -28.894531 16.066406 -25.910156 12.796875 -20.390625 C 11.128906 -17.441406 9.796875 -15.035156 8.796875 -13.171875 C 7.804688 -11.316406 7.179688 -9.941406 6.921875 -9.046875 C 8.335938 -10.585938 10.019531 -12.316406 11.96875 -14.234375 C 13.925781 -16.160156 16.191406 -18.3125 18.765625 -20.6875 C 26.648438 -28 31.84375 -31.65625 34.34375 -31.65625 C 35.050781 -31.65625 35.738281 -31.425781 36.40625 -30.96875 C 37.082031 -30.519531 37.421875 -29.945312 37.421875 -29.25 C 37.421875 -28.925781 36.171875 -26.582031 33.671875 -22.21875 C 31.234375 -17.789062 29.882812 -15.160156 29.625 -14.328125 C 36.75 -20.296875 40.3125 -23.3125 40.3125 -23.375 C 46.34375 -28.0625 50.671875 -30.40625 53.296875 -30.40625 C 54.066406 -30.40625 54.785156 -30.160156 55.453125 -29.671875 C 56.128906 -29.191406 56.46875 -28.632812 56.46875 -28 C 56.46875 -27.863281 54.414062 -25.164062 50.3125 -19.90625 C 46.082031 -14.582031 43.707031 -10.222656 43.1875 -6.828125 C 42.9375 -4.515625 44.125 -3.359375 46.75 -3.359375 C 48.351562 -3.359375 50.597656 -4.382812 53.484375 -6.4375 C 56.367188 -8.5 59.382812 -11.320312 62.53125 -14.90625 C 62.914062 -15.351562 63.332031 -15.785156 63.78125 -16.203125 C 64.226562 -16.617188 64.613281 -16.828125 64.9375 -16.828125 C 65.320312 -16.828125 65.515625 -16.671875 65.515625 -16.359375 C 65.515625 -15.910156 65.226562 -15.394531 64.65625 -14.8125 C 62.976562 -12.820312 61 -10.769531 58.71875 -8.65625 C 56.445312 -6.539062 54.1875 -4.757812 51.9375 -3.3125 C 49.695312 -1.875 47.710938 -1.15625 45.984375 -1.15625 C 41.617188 -1.15625 39.4375 -3.175781 39.4375 -7.21875 C 39.4375 -8.625 39.820312 -10.269531 40.59375 -12.15625 C 41.363281 -14.050781 42.132812 -15.769531 42.90625 -17.3125 C 44.769531 -20.90625 46.789062 -24.082031 48.96875 -26.84375 C 46.914062 -25.8125 44.78125 -24.460938 42.5625 -22.796875 C 40.351562 -21.128906 38.0625 -19.175781 35.6875 -16.9375 C 30.175781 -11.539062 26.394531 -6.085938 24.34375 -0.578125 C 24.019531 -0.0664062 23.472656 0.1875 22.703125 0.1875 Z M 22.703125 0.1875 "/></g></g></g></svg>